G04 #@! TF.GenerationSoftware,KiCad,Pcbnew,(5.1.8)-1*
G04 #@! TF.CreationDate,2021-03-23T17:38:41+09:00*
G04 #@! TF.ProjectId,EX_MEM_AND_FM,45585f4d-454d-45f4-914e-445f464d2e6b,0.1*
G04 #@! TF.SameCoordinates,PX120bdf8PY82ed558*
G04 #@! TF.FileFunction,Soldermask,Top*
G04 #@! TF.FilePolarity,Negative*
%FSLAX46Y46*%
G04 Gerber Fmt 4.6, Leading zero omitted, Abs format (unit mm)*
G04 Created by KiCad (PCBNEW (5.1.8)-1) date 2021-03-23 17:38:41*
%MOMM*%
%LPD*%
G01*
G04 APERTURE LIST*
%ADD10R,1.700000X1.700000*%
%ADD11O,1.700000X1.700000*%
%ADD12R,1.600000X1.600000*%
%ADD13C,1.600000*%
%ADD14O,1.600000X1.600000*%
%ADD15C,1.400000*%
%ADD16O,1.400000X1.400000*%
%ADD17R,2.540000X1.700000*%
%ADD18O,2.540000X1.700000*%
%ADD19R,1.550000X0.600000*%
%ADD20R,3.000000X0.600000*%
%ADD21C,1.260000*%
%ADD22R,5.080000X0.600000*%
%ADD23C,3.200000*%
%ADD24C,0.254000*%
%ADD25C,0.100000*%
G04 APERTURE END LIST*
D10*
X68707000Y15367000D03*
D11*
X71247000Y15367000D03*
X73787000Y15367000D03*
D12*
X148717000Y17907000D03*
D13*
X148717000Y15407000D03*
D12*
X156337000Y19812000D03*
D13*
X156337000Y17312000D03*
D12*
X170942000Y28067000D03*
D13*
X170942000Y25567000D03*
D12*
X177292000Y28067000D03*
D13*
X177292000Y25567000D03*
D12*
X162052000Y21717000D03*
D14*
X169672000Y14097000D03*
X162052000Y19177000D03*
X169672000Y16637000D03*
X162052000Y16637000D03*
X169672000Y19177000D03*
X162052000Y14097000D03*
X169672000Y21717000D03*
D12*
X162687000Y40132000D03*
D13*
X165187000Y40132000D03*
X163957000Y24892000D03*
X166457000Y24892000D03*
D12*
X95377000Y39497000D03*
D14*
X102997000Y24257000D03*
X95377000Y36957000D03*
X102997000Y26797000D03*
X95377000Y34417000D03*
X102997000Y29337000D03*
X95377000Y31877000D03*
X102997000Y31877000D03*
X95377000Y29337000D03*
X102997000Y34417000D03*
X95377000Y26797000D03*
X102997000Y36957000D03*
X95377000Y24257000D03*
X102997000Y39497000D03*
D15*
X161417000Y27432000D03*
D16*
X158877000Y27432000D03*
D15*
X158877000Y24892000D03*
D16*
X161417000Y24892000D03*
D12*
X134747000Y35052000D03*
D14*
X142367000Y19812000D03*
X134747000Y32512000D03*
X142367000Y22352000D03*
X134747000Y29972000D03*
X142367000Y24892000D03*
X134747000Y27432000D03*
X142367000Y27432000D03*
X134747000Y24892000D03*
X142367000Y29972000D03*
X134747000Y22352000D03*
X142367000Y32512000D03*
X134747000Y19812000D03*
X142367000Y35052000D03*
D15*
X137922000Y12827000D03*
D16*
X140462000Y12827000D03*
D12*
X115062000Y61087000D03*
D14*
X122682000Y45847000D03*
X115062000Y58547000D03*
X122682000Y48387000D03*
X115062000Y56007000D03*
X122682000Y50927000D03*
X115062000Y53467000D03*
X122682000Y53467000D03*
X115062000Y50927000D03*
X122682000Y56007000D03*
X115062000Y48387000D03*
X122682000Y58547000D03*
X115062000Y45847000D03*
X122682000Y61087000D03*
D10*
X127762000Y46482000D03*
D11*
X130302000Y46482000D03*
X132842000Y46482000D03*
D17*
X170942000Y42037000D03*
D18*
X170942000Y39497000D03*
X170942000Y36957000D03*
X170942000Y34417000D03*
X170942000Y31877000D03*
D19*
X161257000Y36322000D03*
X161257000Y35052000D03*
X161257000Y33782000D03*
X161257000Y32512000D03*
X166657000Y32512000D03*
X166657000Y33782000D03*
X166657000Y35052000D03*
X166657000Y36322000D03*
D20*
X98132000Y45212000D03*
X109132000Y45212000D03*
X98132000Y46482000D03*
X109132000Y46482000D03*
X98132000Y47752000D03*
X109132000Y47752000D03*
X98132000Y49022000D03*
X109132000Y49022000D03*
X98132000Y50292000D03*
X109132000Y50292000D03*
X98132000Y51562000D03*
X109132000Y51562000D03*
X98132000Y52832000D03*
X109132000Y52832000D03*
X98132000Y54102000D03*
X109132000Y54102000D03*
X98132000Y55372000D03*
X109132000Y55372000D03*
X98132000Y56642000D03*
X109132000Y56642000D03*
X98132000Y57912000D03*
X109132000Y57912000D03*
X98132000Y59182000D03*
X109132000Y59182000D03*
X98132000Y60452000D03*
X109132000Y60452000D03*
X98132000Y61722000D03*
X109132000Y61722000D03*
D12*
X147447000Y39497000D03*
D14*
X155067000Y24257000D03*
X147447000Y36957000D03*
X155067000Y26797000D03*
X147447000Y34417000D03*
X155067000Y29337000D03*
X147447000Y31877000D03*
X155067000Y31877000D03*
X147447000Y29337000D03*
X155067000Y34417000D03*
X147447000Y26797000D03*
X155067000Y36957000D03*
X147447000Y24257000D03*
X155067000Y39497000D03*
D12*
X151257000Y61087000D03*
D14*
X158877000Y45847000D03*
X151257000Y58547000D03*
X158877000Y48387000D03*
X151257000Y56007000D03*
X158877000Y50927000D03*
X151257000Y53467000D03*
X158877000Y53467000D03*
X151257000Y50927000D03*
X158877000Y56007000D03*
X151257000Y48387000D03*
X158877000Y58547000D03*
X151257000Y45847000D03*
X158877000Y61087000D03*
D12*
X164592000Y61087000D03*
D14*
X172212000Y45847000D03*
X164592000Y58547000D03*
X172212000Y48387000D03*
X164592000Y56007000D03*
X172212000Y50927000D03*
X164592000Y53467000D03*
X172212000Y53467000D03*
X164592000Y50927000D03*
X172212000Y56007000D03*
X164592000Y48387000D03*
X172212000Y58547000D03*
X164592000Y45847000D03*
X172212000Y61087000D03*
D12*
X137922000Y61087000D03*
D14*
X145542000Y45847000D03*
X137922000Y58547000D03*
X145542000Y48387000D03*
X137922000Y56007000D03*
X145542000Y50927000D03*
X137922000Y53467000D03*
X145542000Y53467000D03*
X137922000Y50927000D03*
X145542000Y56007000D03*
X137922000Y48387000D03*
X145542000Y58547000D03*
X137922000Y45847000D03*
X145542000Y61087000D03*
D12*
X122047000Y35052000D03*
D14*
X129667000Y17272000D03*
X122047000Y32512000D03*
X129667000Y19812000D03*
X122047000Y29972000D03*
X129667000Y22352000D03*
X122047000Y27432000D03*
X129667000Y24892000D03*
X122047000Y24892000D03*
X129667000Y27432000D03*
X122047000Y22352000D03*
X129667000Y29972000D03*
X122047000Y19812000D03*
X129667000Y32512000D03*
X122047000Y17272000D03*
X129667000Y35052000D03*
D21*
X176657000Y14097000D03*
X179197000Y16637000D03*
X176657000Y19177000D03*
D15*
X147447000Y64262000D03*
D16*
X149987000Y64262000D03*
D15*
X172847000Y22352000D03*
D16*
X175387000Y22352000D03*
D15*
X180467000Y22352000D03*
D16*
X177927000Y22352000D03*
D10*
X59817000Y15367000D03*
D11*
X62357000Y15367000D03*
X64897000Y15367000D03*
D10*
X132207000Y42037000D03*
D11*
X134747000Y42037000D03*
X137287000Y42037000D03*
D10*
X123317000Y42037000D03*
D11*
X125857000Y42037000D03*
X128397000Y42037000D03*
D10*
X127762000Y61849000D03*
D11*
X130302000Y61849000D03*
X132842000Y61849000D03*
D10*
X127762000Y58039000D03*
D11*
X130302000Y58039000D03*
X132842000Y58039000D03*
D10*
X127762000Y54229000D03*
D11*
X130302000Y54229000D03*
X132842000Y54229000D03*
D10*
X127762000Y50419000D03*
D11*
X130302000Y50419000D03*
X132842000Y50419000D03*
D13*
X166497000Y29972000D03*
X163997000Y29972000D03*
X104902000Y64262000D03*
X102402000Y64262000D03*
X122642000Y64897000D03*
X120142000Y64897000D03*
X139827000Y38227000D03*
X137327000Y38227000D03*
X152527000Y42672000D03*
X150027000Y42672000D03*
X156337000Y64262000D03*
X153837000Y64262000D03*
X169672000Y64262000D03*
X167172000Y64262000D03*
X143002000Y64262000D03*
X140502000Y64262000D03*
X127127000Y38227000D03*
X124627000Y38227000D03*
D12*
X108712000Y39497000D03*
D14*
X116332000Y21717000D03*
X108712000Y36957000D03*
X116332000Y24257000D03*
X108712000Y34417000D03*
X116332000Y26797000D03*
X108712000Y31877000D03*
X116332000Y29337000D03*
X108712000Y29337000D03*
X116332000Y31877000D03*
X108712000Y26797000D03*
X116332000Y34417000D03*
X108712000Y24257000D03*
X116332000Y36957000D03*
X108712000Y21717000D03*
X116332000Y39497000D03*
D12*
X81407000Y39497000D03*
D14*
X89027000Y24257000D03*
X81407000Y36957000D03*
X89027000Y26797000D03*
X81407000Y34417000D03*
X89027000Y29337000D03*
X81407000Y31877000D03*
X89027000Y31877000D03*
X81407000Y29337000D03*
X89027000Y34417000D03*
X81407000Y26797000D03*
X89027000Y36957000D03*
X81407000Y24257000D03*
X89027000Y39497000D03*
D12*
X67437000Y39497000D03*
D14*
X75057000Y24257000D03*
X67437000Y36957000D03*
X75057000Y26797000D03*
X67437000Y34417000D03*
X75057000Y29337000D03*
X67437000Y31877000D03*
X75057000Y31877000D03*
X67437000Y29337000D03*
X75057000Y34417000D03*
X67437000Y26797000D03*
X75057000Y36957000D03*
X67437000Y24257000D03*
X75057000Y39497000D03*
D12*
X53467000Y39497000D03*
D14*
X61087000Y24257000D03*
X53467000Y36957000D03*
X61087000Y26797000D03*
X53467000Y34417000D03*
X61087000Y29337000D03*
X53467000Y31877000D03*
X61087000Y31877000D03*
X53467000Y29337000D03*
X61087000Y34417000D03*
X53467000Y26797000D03*
X61087000Y36957000D03*
X53467000Y24257000D03*
X61087000Y39497000D03*
D12*
X39497000Y39497000D03*
D14*
X47117000Y16637000D03*
X39497000Y36957000D03*
X47117000Y19177000D03*
X39497000Y34417000D03*
X47117000Y21717000D03*
X39497000Y31877000D03*
X47117000Y24257000D03*
X39497000Y29337000D03*
X47117000Y26797000D03*
X39497000Y26797000D03*
X47117000Y29337000D03*
X39497000Y24257000D03*
X47117000Y31877000D03*
X39497000Y21717000D03*
X47117000Y34417000D03*
X39497000Y19177000D03*
X47117000Y36957000D03*
X39497000Y16637000D03*
X47117000Y39497000D03*
D12*
X25527000Y39497000D03*
D14*
X33147000Y16637000D03*
X25527000Y36957000D03*
X33147000Y19177000D03*
X25527000Y34417000D03*
X33147000Y21717000D03*
X25527000Y31877000D03*
X33147000Y24257000D03*
X25527000Y29337000D03*
X33147000Y26797000D03*
X25527000Y26797000D03*
X33147000Y29337000D03*
X25527000Y24257000D03*
X33147000Y31877000D03*
X25527000Y21717000D03*
X33147000Y34417000D03*
X25527000Y19177000D03*
X33147000Y36957000D03*
X25527000Y16637000D03*
X33147000Y39497000D03*
D12*
X11557000Y39497000D03*
D14*
X19177000Y16637000D03*
X11557000Y36957000D03*
X19177000Y19177000D03*
X11557000Y34417000D03*
X19177000Y21717000D03*
X11557000Y31877000D03*
X19177000Y24257000D03*
X11557000Y29337000D03*
X19177000Y26797000D03*
X11557000Y26797000D03*
X19177000Y29337000D03*
X11557000Y24257000D03*
X19177000Y31877000D03*
X11557000Y21717000D03*
X19177000Y34417000D03*
X11557000Y19177000D03*
X19177000Y36957000D03*
X11557000Y16637000D03*
X19177000Y39497000D03*
D22*
X77597000Y45212000D03*
X88287000Y45212000D03*
X77597000Y46482000D03*
X88287000Y46482000D03*
X77597000Y47752000D03*
X88287000Y47752000D03*
X77597000Y49022000D03*
X88287000Y49022000D03*
X77597000Y50292000D03*
X88287000Y50292000D03*
X77597000Y51562000D03*
X88287000Y51562000D03*
X77597000Y52832000D03*
X88287000Y52832000D03*
X77597000Y54102000D03*
X88287000Y54102000D03*
X77597000Y55372000D03*
X88287000Y55372000D03*
X77597000Y56642000D03*
X88287000Y56642000D03*
X77597000Y57912000D03*
X88287000Y57912000D03*
X77597000Y59182000D03*
X88287000Y59182000D03*
X77597000Y60452000D03*
X88287000Y60452000D03*
X77597000Y61722000D03*
X88287000Y61722000D03*
X77597000Y62992000D03*
X88287000Y62992000D03*
X77597000Y64262000D03*
X88287000Y64262000D03*
X56007000Y45212000D03*
X66697000Y45212000D03*
X56007000Y46482000D03*
X66697000Y46482000D03*
X56007000Y47752000D03*
X66697000Y47752000D03*
X56007000Y49022000D03*
X66697000Y49022000D03*
X56007000Y50292000D03*
X66697000Y50292000D03*
X56007000Y51562000D03*
X66697000Y51562000D03*
X56007000Y52832000D03*
X66697000Y52832000D03*
X56007000Y54102000D03*
X66697000Y54102000D03*
X56007000Y55372000D03*
X66697000Y55372000D03*
X56007000Y56642000D03*
X66697000Y56642000D03*
X56007000Y57912000D03*
X66697000Y57912000D03*
X56007000Y59182000D03*
X66697000Y59182000D03*
X56007000Y60452000D03*
X66697000Y60452000D03*
X56007000Y61722000D03*
X66697000Y61722000D03*
X56007000Y62992000D03*
X66697000Y62992000D03*
X56007000Y64262000D03*
X66697000Y64262000D03*
X34152000Y45212000D03*
X44842000Y45212000D03*
X34152000Y46482000D03*
X44842000Y46482000D03*
X34152000Y47752000D03*
X44842000Y47752000D03*
X34152000Y49022000D03*
X44842000Y49022000D03*
X34152000Y50292000D03*
X44842000Y50292000D03*
X34152000Y51562000D03*
X44842000Y51562000D03*
X34152000Y52832000D03*
X44842000Y52832000D03*
X34152000Y54102000D03*
X44842000Y54102000D03*
X34152000Y55372000D03*
X44842000Y55372000D03*
X34152000Y56642000D03*
X44842000Y56642000D03*
X34152000Y57912000D03*
X44842000Y57912000D03*
X34152000Y59182000D03*
X44842000Y59182000D03*
X34152000Y60452000D03*
X44842000Y60452000D03*
X34152000Y61722000D03*
X44842000Y61722000D03*
X34152000Y62992000D03*
X44842000Y62992000D03*
X34152000Y64262000D03*
X44842000Y64262000D03*
X12562000Y45212000D03*
X23252000Y45212000D03*
X12562000Y46482000D03*
X23252000Y46482000D03*
X12562000Y47752000D03*
X23252000Y47752000D03*
X12562000Y49022000D03*
X23252000Y49022000D03*
X12562000Y50292000D03*
X23252000Y50292000D03*
X12562000Y51562000D03*
X23252000Y51562000D03*
X12562000Y52832000D03*
X23252000Y52832000D03*
X12562000Y54102000D03*
X23252000Y54102000D03*
X12562000Y55372000D03*
X23252000Y55372000D03*
X12562000Y56642000D03*
X23252000Y56642000D03*
X12562000Y57912000D03*
X23252000Y57912000D03*
X12562000Y59182000D03*
X23252000Y59182000D03*
X12562000Y60452000D03*
X23252000Y60452000D03*
X12562000Y61722000D03*
X23252000Y61722000D03*
X12562000Y62992000D03*
X23252000Y62992000D03*
X12562000Y64262000D03*
X23252000Y64262000D03*
D15*
X70612000Y19177000D03*
D16*
X73152000Y19177000D03*
D15*
X76962000Y42672000D03*
D16*
X79502000Y42672000D03*
D15*
X5207000Y47117000D03*
D16*
X7747000Y47117000D03*
D10*
X99187000Y19177000D03*
D11*
X101727000Y19177000D03*
X104267000Y19177000D03*
D10*
X89027000Y19177000D03*
D11*
X91567000Y19177000D03*
X94107000Y19177000D03*
D10*
X76327000Y19177000D03*
D11*
X78867000Y19177000D03*
X81407000Y19177000D03*
D10*
X6477000Y42672000D03*
D11*
X6477000Y40132000D03*
X6477000Y37592000D03*
D10*
X6477000Y56007000D03*
D11*
X6477000Y53467000D03*
X6477000Y50927000D03*
D13*
X92202000Y64262000D03*
X94702000Y64262000D03*
X70612000Y64262000D03*
X73112000Y64262000D03*
X49022000Y64262000D03*
X51522000Y64262000D03*
X27432000Y64262000D03*
X29932000Y64262000D03*
X86447000Y42672000D03*
X83947000Y42672000D03*
X113792000Y42672000D03*
X111292000Y42672000D03*
X100457000Y42672000D03*
X97957000Y42672000D03*
X72517000Y42672000D03*
X70017000Y42672000D03*
X58547000Y42672000D03*
X56047000Y42672000D03*
X44577000Y42672000D03*
X42077000Y42672000D03*
X30607000Y42672000D03*
X28107000Y42672000D03*
X16637000Y42672000D03*
X14137000Y42672000D03*
D12*
X5207000Y24257000D03*
D13*
X7707000Y24257000D03*
D23*
X4699000Y62738000D03*
D24*
X110363000Y508000D02*
X109855000Y0D01*
X17399000Y0D01*
X16891000Y508000D01*
X16891000Y8890000D01*
X110363000Y8890000D01*
X110363000Y508000D01*
D25*
G36*
X110363000Y508000D02*
G01*
X109855000Y0D01*
X17399000Y0D01*
X16891000Y508000D01*
X16891000Y8890000D01*
X110363000Y8890000D01*
X110363000Y508000D01*
G37*
M02*
