M48
; DRILL file {KiCad (5.1.8)-1} date 03/23/21 17:39:32
; FORMAT={-:-/ absolute / inch / decimal}
; #@! TF.CreationDate,2021-03-23T17:39:32+09:00
; #@! TF.GenerationSoftware,Kicad,Pcbnew,(5.1.8)-1
; #@! TF.FileFunction,Plated,1,2,PTH
FMAT,2
INCH
T1C0.0118
T2C0.0157
T3C0.0276
T4C0.0315
T5C0.0394
%
G90
G05
T1
X0.32Y1.21
X0.33Y1.675
X0.355Y1.31
X0.63Y1.83
X0.655Y1.88
X0.665Y1.065
X0.665Y0.965
X0.68Y1.93
X0.695Y1.53
X0.7Y1.805
X0.715Y1.855
X0.715Y1.305
X0.725Y1.005
X0.73Y1.905
X0.755Y0.52
X0.795Y1.98
X0.795Y1.93
X0.835Y1.255
X0.85Y0.505
X0.855Y1.155
X0.87Y1.055
X0.88Y0.955
X0.895Y0.855
X0.915Y0.755
X0.93Y0.505
X1.005Y0.505
X1.04Y2.055
X1.065Y2.005
X1.075Y1.14
X1.09Y1.955
X1.09Y1.055
X1.1Y0.525
X1.115Y2.105
X1.14Y2.155
X1.165Y2.305
X1.165Y2.255
X1.165Y2.205
X1.17Y0.53
X1.215Y0.905
X1.23Y0.805
X1.245Y0.705
X1.26Y0.52
X1.33Y0.525
X1.52Y2.18
X1.52Y0.52
X1.55Y2.08
X1.575Y2.23
X1.6Y2.28
X1.62Y0.515
X1.625Y0.805
X1.63Y2.03
X1.64Y0.705
X1.69Y0.53
X1.76Y0.535
X1.88Y1.685
X1.9Y2.355
X1.93Y2.33
X1.95Y2.405
X1.97Y2.48
X2.095Y1.645
X2.325Y0.46
X2.355Y1.205
X2.41Y2.03
X2.43Y1.65
X2.48Y1.71
X2.485Y1.56
X2.495Y2.455
X2.6Y0.535
X2.605Y1.305
X2.605Y0.81
X2.605Y0.65
X2.625Y0.475
X2.72Y0.47
X2.915Y0.825
X2.985Y1.63
X3.04Y0.89
X3.075Y1.435
X3.08Y0.6
X3.115Y1.145
X3.13Y1.38
X3.14Y0.99
X3.145Y1.28
X3.18Y2.455
X3.19Y2.055
X3.19Y1.93
X3.245Y2.03
X3.255Y2.405
X3.255Y2.355
X3.265Y1.335
X3.265Y1.055
X3.28Y1.505
X3.295Y1.435
X3.305Y1.855
X3.305Y1.805
X3.355Y2.055
X3.355Y2.005
X3.415Y1.205
X3.445Y1.26
X3.555Y1.105
X3.565Y1.205
X3.575Y1.615
X3.58Y0.445
X3.5893Y0.8907
X3.595Y1.235
X3.6Y2.355
X3.605Y1.93
X3.605Y1.88
X3.605Y1.83
X3.605Y1.78
X3.62Y1.615
X3.63Y0.445
X3.64Y2.08
X3.64Y1.855
X3.64Y1.805
X3.655Y2.24
X3.655Y1.355
X3.66Y0.92
X3.665Y2.13
X3.675Y1.305
X3.68Y1.53
X3.69Y2.18
X3.725Y2.23
X3.73Y2.105
X3.78Y2.38
X3.78Y2.33
X3.78Y2.03
X3.78Y1.98
X3.815Y1.1
X3.825Y1.485
X3.825Y1.45
X3.84Y1.005
X3.855Y1.53
X3.855Y0.445
X3.87Y1.105
X3.955Y2.155
X3.955Y2.055
X3.96Y2.33
X3.965Y1.44
X3.97Y1.2
X3.98Y2.395
X3.98Y1.155
X3.995Y1.795
X4.0024Y1.8524
X4.005Y2.205
X4.005Y1.905
X4.055Y1.765
X4.1259Y1.7159
X4.13Y1.78
X4.13Y1.33
X4.13Y0.98
X4.155Y1.255
X4.155Y0.93
X4.1733Y1.6483
X4.18Y1.605
X4.18Y1.505
X4.18Y1.205
X4.185Y0.91
X4.195Y2.305
X4.205Y2.43
X4.205Y2.255
X4.205Y1.955
X4.205Y1.915
X4.205Y1.88
X4.205Y1.805
X4.205Y1.255
X4.36Y1.595
X4.38Y2.23
X4.38Y2.18
X4.38Y2.08
X4.38Y1.505
X4.505Y1.105
X4.505Y1.005
X4.58Y0.73
X4.59Y1.94
X4.595Y2.18
X4.6Y2.38
X4.61Y0.685
X4.63Y0.655
X4.655Y1.53
X4.655Y1.355
X4.675Y1.655
X4.68Y1.555
X4.68Y0.705
X4.705Y2.305
X4.705Y1.105
X4.71Y2.08
X4.72Y2.205
X4.73Y2.405
X4.73Y1.03
X4.765Y1.88
X4.855Y1.455
X4.905Y2.33
X4.905Y1.255
X4.905Y0.805
X4.9248Y2.4802
X4.955Y2.455
X5.0797Y2.0447
X5.155Y1.555
X5.18Y1.505
X5.18Y1.455
X5.23Y1.53
X5.285Y2.375
X5.305Y2.525
X5.33Y2.495
X5.33Y2.28
X5.33Y1.955
X5.355Y2.15
X5.355Y1.905
X5.505Y2.13
X5.505Y1.655
X5.515Y2.045
X5.52Y2.255
X5.52Y1.915
X5.655Y1.58
X5.68Y0.565
X5.72Y1.475
X5.755Y1.63
X5.805Y2.33
X5.83Y2.055
X5.835Y1.77
X5.865Y1.955
X6.03Y1.905
X6.04Y2.155
X6.08Y1.68
X6.175Y2.43
X6.18Y1.43
X6.185Y1.755
X6.23Y1.655
X6.28Y1.535
X6.33Y2.325
X6.33Y2.28
X6.33Y2.03
X6.405Y1.38
X6.455Y1.38
X6.455Y1.29
X6.58Y1.69
X6.62Y1.295
T2
X0.205Y1.375
X0.3034Y0.6566
X0.325Y1.375
X0.335Y1.59
X0.58Y0.655
X0.63Y1.605
X0.63Y0.555
X1.13Y1.555
X1.13Y1.455
X1.13Y0.655
X1.16Y0.605
X1.18Y1.61
X1.4665Y1.7465
X1.68Y1.555
X1.68Y1.455
X1.68Y0.655
X1.73Y1.61
X1.73Y0.605
X2.105Y0.655
X2.105Y0.555
X2.23Y1.455
X2.23Y0.955
X2.28Y1.605
X2.28Y0.855
X2.53Y1.68
X2.675Y1.68
X2.78Y1.355
X2.78Y1.155
X2.78Y0.955
X2.83Y0.855
X2.92Y0.47
X2.925Y1.755
X3.0106Y0.4706
X3.07Y0.855
X3.265Y0.855
X3.27Y0.435
X3.285Y0.6
X3.31Y0.54
X3.31Y0.47
X3.3274Y0.7199
X3.33Y0.955
X3.3515Y1.7465
X3.37Y0.59
X3.38Y0.855
X3.455Y0.54
X3.455Y0.47
X3.495Y0.44
X3.5073Y0.5823
X3.88Y0.885
X3.885Y0.975
X3.93Y0.855
X3.955Y1.88
X4.015Y2.275
X4.055Y2.42
X4.055Y2.08
X4.08Y1.68
X4.095Y2.275
X4.13Y2.385
X4.3323Y0.5823
X4.355Y1.35
X4.355Y0.78
X4.405Y0.855
X4.405Y0.54
X4.405Y0.47
X4.42Y1.455
X4.42Y1.055
X4.4576Y1.3126
X4.4576Y0.7674
X4.4875Y0.5825
X4.63Y1.805
X4.68Y1.74
X4.945Y1.08
X4.945Y0.68
X5.18Y0.655
X5.305Y1.77
X5.305Y0.54
X5.305Y0.47
X5.445Y0.78
X5.4707Y0.6707
X5.555Y2.305
X5.555Y2.105
X5.555Y1.805
X5.605Y1.755
X5.755Y0.54
X5.755Y0.47
X5.8155Y0.8295
X5.8515Y1.7315
X5.92Y1.455
X5.92Y0.955
X5.98Y0.83
X6.08Y1.805
X6.13Y1.755
X6.36Y1.71
X6.495Y1.33
X6.605Y2.305
X6.605Y2.105
X6.605Y1.805
X6.655Y1.73
T3
X7.005Y0.88
X7.105Y0.88
X5.805Y2.53
X5.905Y2.53
X0.205Y1.855
X0.305Y1.855
X2.78Y0.755
X2.88Y0.755
X5.43Y0.505
X5.53Y0.505
X6.955Y0.755
X6.955Y0.555
X7.055Y0.655
X6.255Y0.98
X6.355Y0.98
X6.805Y0.88
X6.905Y0.88
X3.03Y1.68
X3.13Y1.68
X6.255Y1.08
X6.355Y1.08
T4
X4.0316Y2.53
X4.13Y2.53
X4.9066Y1.505
X5.005Y1.505
X1.1066Y1.68
X1.205Y1.68
X3.755Y1.555
X3.755Y1.455
X3.755Y1.355
X3.755Y1.255
X3.755Y1.155
X3.755Y1.055
X3.755Y0.955
X4.055Y1.555
X4.055Y1.455
X4.055Y1.355
X4.055Y1.255
X4.055Y1.155
X4.055Y1.055
X4.055Y0.955
X5.855Y0.705
X5.855Y0.6066
X5.5316Y2.53
X5.63Y2.53
X6.4566Y1.18
X6.555Y1.18
X5.4066Y1.505
X5.505Y1.505
X4.3816Y1.68
X4.48Y1.68
X0.455Y1.555
X0.455Y1.455
X0.455Y1.355
X0.455Y1.255
X0.455Y1.155
X0.455Y1.055
X0.455Y0.955
X0.455Y0.855
X0.455Y0.755
X0.455Y0.655
X0.755Y1.555
X0.755Y1.455
X0.755Y1.355
X0.755Y1.255
X0.755Y1.155
X0.755Y1.055
X0.755Y0.955
X0.755Y0.855
X0.755Y0.755
X0.755Y0.655
X2.2066Y1.68
X2.305Y1.68
X6.455Y0.98
X6.5534Y0.98
X6.155Y0.78
X6.155Y0.6816
X5.9066Y1.68
X6.005Y1.68
X3.8566Y1.68
X3.955Y1.68
X1.6566Y1.68
X1.755Y1.68
X1.08Y2.53
X1.1784Y2.53
X6.405Y1.58
X6.5034Y1.58
X5.43Y2.405
X5.43Y2.305
X5.43Y2.205
X5.43Y2.105
X5.43Y2.005
X5.43Y1.905
X5.43Y1.805
X5.73Y2.405
X5.73Y2.305
X5.73Y2.205
X5.73Y2.105
X5.73Y2.005
X5.73Y1.905
X5.73Y1.805
X3.205Y1.555
X3.205Y1.455
X3.205Y1.355
X3.205Y1.255
X3.205Y1.155
X3.205Y1.055
X3.205Y0.955
X3.505Y1.555
X3.505Y1.455
X3.505Y1.355
X3.505Y1.255
X3.505Y1.155
X3.505Y1.055
X3.505Y0.955
X4.73Y2.555
X4.8284Y2.555
X0.205Y0.955
X0.3034Y0.955
X6.38Y0.855
X6.38Y0.755
X6.38Y0.655
X6.38Y0.555
X6.68Y0.855
X6.68Y0.755
X6.68Y0.655
X6.68Y0.555
X6.73Y1.105
X6.73Y1.0066
X1.005Y1.555
X1.005Y1.455
X1.005Y1.355
X1.005Y1.255
X1.005Y1.155
X1.005Y1.055
X1.005Y0.955
X1.005Y0.855
X1.005Y0.755
X1.005Y0.655
X1.305Y1.555
X1.305Y1.455
X1.305Y1.355
X1.305Y1.255
X1.305Y1.155
X1.305Y1.055
X1.305Y0.955
X1.305Y0.855
X1.305Y0.755
X1.305Y0.655
X1.555Y1.555
X1.555Y1.455
X1.555Y1.355
X1.555Y1.255
X1.555Y1.155
X1.555Y1.055
X1.555Y0.955
X1.555Y0.855
X1.555Y0.755
X1.555Y0.655
X1.855Y1.555
X1.855Y1.455
X1.855Y1.355
X1.855Y1.255
X1.855Y1.155
X1.855Y1.055
X1.855Y0.955
X1.855Y0.855
X1.855Y0.755
X1.855Y0.655
X0.5566Y1.68
X0.655Y1.68
X5.305Y1.38
X5.305Y1.28
X5.305Y1.18
X5.305Y1.08
X5.305Y0.98
X5.305Y0.88
X5.305Y0.78
X5.605Y1.38
X5.605Y1.28
X5.605Y1.18
X5.605Y1.08
X5.605Y0.98
X5.605Y0.88
X5.605Y0.78
X1.93Y2.53
X2.0284Y2.53
X4.53Y2.405
X4.53Y2.305
X4.53Y2.205
X4.53Y2.105
X4.53Y2.005
X4.53Y1.905
X4.53Y1.805
X4.83Y2.405
X4.83Y2.305
X4.83Y2.205
X4.83Y2.105
X4.83Y2.005
X4.83Y1.905
X4.83Y1.805
X2.105Y1.555
X2.105Y1.455
X2.105Y1.355
X2.105Y1.255
X2.105Y1.155
X2.105Y1.055
X2.105Y0.955
X2.405Y1.555
X2.405Y1.455
X2.405Y1.355
X2.405Y1.255
X2.405Y1.155
X2.405Y1.055
X2.405Y0.955
X6.0566Y2.53
X6.155Y2.53
X2.7566Y1.68
X2.855Y1.68
X6.98Y1.105
X6.98Y1.0066
X5.955Y2.405
X5.955Y2.305
X5.955Y2.205
X5.955Y2.105
X5.955Y2.005
X5.955Y1.905
X5.955Y1.805
X6.255Y2.405
X6.255Y2.305
X6.255Y2.205
X6.255Y2.105
X6.255Y2.005
X6.255Y1.905
X6.255Y1.805
X6.5816Y2.53
X6.68Y2.53
X2.655Y1.555
X2.655Y1.455
X2.655Y1.355
X2.655Y1.255
X2.655Y1.155
X2.655Y1.055
X2.655Y0.955
X2.955Y1.555
X2.955Y1.455
X2.955Y1.355
X2.955Y1.255
X2.955Y1.155
X2.955Y1.055
X2.955Y0.955
X4.28Y1.555
X4.28Y1.455
X4.28Y1.355
X4.28Y1.255
X4.28Y1.155
X4.28Y1.055
X4.28Y0.955
X4.28Y0.855
X4.58Y1.555
X4.58Y1.455
X4.58Y1.355
X4.58Y1.255
X4.58Y1.155
X4.58Y1.055
X4.58Y0.955
X4.58Y0.855
X2.78Y2.53
X2.8784Y2.53
X3.63Y2.53
X3.7284Y2.53
X3.305Y1.68
X3.4034Y1.68
X4.805Y1.38
X4.805Y1.28
X4.805Y1.18
X4.805Y1.08
X4.805Y0.98
X4.805Y0.88
X4.805Y0.78
X4.805Y0.68
X5.105Y1.38
X5.105Y1.28
X5.105Y1.18
X5.105Y1.08
X5.105Y0.98
X5.105Y0.88
X5.105Y0.78
X5.105Y0.68
X5.805Y1.555
X5.805Y1.455
X5.805Y1.355
X5.805Y1.255
X5.805Y1.155
X5.805Y1.055
X5.805Y0.955
X6.105Y1.555
X6.105Y1.455
X6.105Y1.355
X6.105Y1.255
X6.105Y1.155
X6.105Y1.055
X6.105Y0.955
X6.48Y2.405
X6.48Y2.305
X6.48Y2.205
X6.48Y2.105
X6.48Y2.005
X6.48Y1.905
X6.48Y1.805
X6.78Y2.405
X6.78Y2.305
X6.78Y2.205
X6.78Y2.105
X6.78Y2.005
X6.78Y1.905
X6.78Y1.805
T5
X3.905Y0.755
X4.005Y0.755
X4.105Y0.755
X5.03Y1.985
X5.13Y1.985
X5.23Y1.985
X5.03Y2.435
X5.13Y2.435
X5.23Y2.435
X0.255Y2.205
X0.255Y2.105
X0.255Y2.005
X4.855Y1.655
X4.955Y1.655
X5.055Y1.655
X5.03Y2.135
X5.13Y2.135
X5.23Y2.135
X2.705Y0.605
X2.805Y0.605
X2.905Y0.605
X6.73Y1.655
X6.73Y1.555
X6.73Y1.455
X6.73Y1.355
X6.73Y1.255
X3.505Y0.755
X3.605Y0.755
X3.705Y0.755
X3.005Y0.755
X3.105Y0.755
X3.205Y0.755
X5.03Y1.83
X5.13Y1.83
X5.23Y1.83
X5.205Y1.655
X5.305Y1.655
X5.405Y1.655
X5.03Y2.285
X5.13Y2.285
X5.23Y2.285
X0.255Y1.68
X0.255Y1.58
X0.255Y1.48
X2.355Y0.605
X2.455Y0.605
X2.555Y0.605
T0
M30
